<svg width="248" height="262" viewBox="0 0 248 262" fill="none" xmlns="http://www.w3.org/2000/svg">
<g clip-path="url(#clip0_558_11488)">
<rect y="13.8652" width="247.514" height="247.514" rx="123.757" fill="#F2F4F7"/>
<path d="M128.665 66.2285L272.901 5.92285L283.473 31.2051L179.168 74.8145L269.996 144.892L260.765 156.857L216.597 122.78L161.357 150.698L212.375 282.515L196.233 288.762L145.835 158.543L141.665 160.651L133.355 144.21L139.153 141.279L122.586 98.4727L37.7266 133.953L91.1416 273.636L73.9346 280.216L20.7217 141.062L-25.4326 160.361L-36.0039 135.078L112.69 72.9072L75.3838 -23.4863L91.5244 -29.7334L128.665 66.2285ZM138.56 91.7939L154.676 133.435L200.432 110.309L163.123 81.5234L138.56 91.7939Z" fill="#E5E7EB"/>
</g>
<g clip-path="url(#clip1_558_11488)">
<path d="M193.258 173.6C203.983 173.6 212.658 182.127 212.658 192.622C212.658 203.022 204.317 211.949 193.258 219.371C181.651 211.594 173.857 203.03 173.857 192.622C173.858 182.127 182.533 173.6 193.258 173.6Z" fill="url(#paint0_linear_558_11488)"/>
<path d="M193.258 173.6C203.983 173.6 212.658 182.127 212.658 192.622C212.658 203.022 204.317 211.949 193.258 219.371C181.651 211.594 173.857 203.03 173.857 192.622C173.858 182.127 182.533 173.6 193.258 173.6Z" fill="url(#paint1_linear_558_11488)"/>
<path d="M193.258 173.6C203.983 173.6 212.658 182.127 212.658 192.622C212.658 203.022 204.317 211.949 193.258 219.371C181.651 211.594 173.857 203.03 173.857 192.622C173.858 182.127 182.533 173.6 193.258 173.6Z" stroke="white" stroke-width="1.2"/>
<path d="M197.258 188C197.258 188.552 197.706 189 198.258 189H202.258C202.81 189 203.258 189.448 203.258 190V196C203.258 196.552 202.81 197 202.258 197H198.258C197.706 197 197.258 197.448 197.258 198V202C197.258 202.552 196.81 203 196.258 203H190.258C189.706 203 189.258 202.552 189.258 202V198C189.258 197.448 188.81 197 188.258 197H184.258C183.706 197 183.258 196.552 183.258 196V190C183.258 189.448 183.706 189 184.258 189H188.258C188.81 189 189.258 188.552 189.258 188V184C189.258 183.448 189.706 183 190.258 183H196.258C196.81 183 197.258 183.448 197.258 184V188Z" fill="white"/>
</g>
<ellipse cx="104.747" cy="215.014" rx="17.9209" ry="12.8806" fill="#5E6067"/>
<path d="M161.87 138.587C161.87 168.829 137.467 194.424 106.035 215.355C105.595 215.648 105.017 215.647 104.577 215.355C71.5711 193.406 48.7441 168.84 48.7441 138.587C48.7441 108.113 74.0681 83.4082 105.307 83.4082C136.546 83.4082 161.87 108.113 161.87 138.587Z" fill="url(#paint2_linear_558_11488)"/>
<rect x="77.8633" y="125.971" width="56.0025" height="44.802" rx="4.48022" fill="#C1F1FF"/>
<path opacity="0.4" d="M108.25 147.251C108.25 146.014 109.253 145.011 110.49 145.011H122.811C124.048 145.011 125.051 146.014 125.051 147.251V170.772H108.25V147.251Z" fill="#3BB7FF"/>
<path d="M71.1445 124.85C71.1445 122.376 73.1504 120.37 75.6247 120.37H136.107C138.582 120.37 140.588 122.376 140.588 124.85V134.931H71.1445V124.85Z" fill="#2BBBFF"/>
<path d="M71.1445 134.932H140.588V136.052C140.588 137.289 139.585 138.292 138.348 138.292H73.3846C72.1475 138.292 71.1445 137.289 71.1445 136.052V134.932Z" fill="#0091FF"/>
<g clip-path="url(#clip2_558_11488)">
<path d="M18.001 58.54C27.6541 58.54 35.4619 66.2151 35.4619 75.6611C35.4619 85.0219 27.9541 93.0559 18 99.7363C7.55376 92.7366 0.540039 85.0287 0.540039 75.6611C0.540052 66.2151 8.34782 58.54 18.001 58.54Z" fill="#FFD06B"/>
<path d="M18.001 58.54C27.6541 58.54 35.4619 66.2151 35.4619 75.6611C35.4619 85.0219 27.9541 93.0559 18 99.7363C7.55376 92.7366 0.540039 85.0287 0.540039 75.6611C0.540052 66.2151 8.34782 58.54 18.001 58.54Z" fill="url(#paint3_linear_558_11488)"/>
<path d="M18.001 58.54C27.6541 58.54 35.4619 66.2151 35.4619 75.6611C35.4619 85.0219 27.9541 93.0559 18 99.7363C7.55376 92.7366 0.540039 85.0287 0.540039 75.6611C0.540052 66.2151 8.34782 58.54 18.001 58.54Z" stroke="white" stroke-width="1.08006"/>
<path d="M8.09961 71.6006C8.09961 71.0483 8.54735 70.6006 9.09966 70.6006H23.0549C23.6072 70.6006 24.0549 71.0483 24.0549 71.6006V76.1236C24.0549 80.5295 20.4832 84.1013 16.0773 84.1013C11.6713 84.1013 8.09961 80.5295 8.09961 76.1236V71.6006Z" fill="white"/>
<path d="M21.659 78.7524C22.156 79.3704 22.8252 79.8271 23.5819 80.0648C24.3386 80.3025 25.1487 80.3105 25.9099 80.0878C26.6711 79.8651 27.3492 79.4216 27.8584 78.8135C28.3676 78.2054 28.685 77.46 28.7705 76.6715C28.856 75.883 28.7058 75.0868 28.3389 74.3837C27.9719 73.6806 27.4047 73.102 26.7089 72.7213C26.0132 72.3405 25.2201 72.1746 24.4301 72.2446C23.6401 72.3145 22.8885 72.6172 22.2705 73.1143L23.4419 74.5706C23.7718 74.3052 24.1731 74.1436 24.5949 74.1063C25.0168 74.0689 25.4402 74.1575 25.8117 74.3608C26.1832 74.5641 26.486 74.873 26.6819 75.2484C26.8779 75.6238 26.9581 76.0489 26.9124 76.4699C26.8667 76.8909 26.6973 77.289 26.4254 77.6136C26.1535 77.9383 25.7915 78.1751 25.3851 78.294C24.9786 78.4129 24.5461 78.4087 24.1421 78.2818C23.7381 78.1548 23.3808 77.911 23.1153 77.581L21.659 78.7524Z" fill="white"/>
</g>
<g clip-path="url(#clip3_558_11488)">
<path d="M164.759 0.540039C174.412 0.540039 182.22 8.21506 182.22 17.6611C182.22 27.0219 174.712 35.0559 164.758 41.7363C154.312 34.7366 147.298 27.0287 147.298 17.6611C147.298 8.21507 155.106 0.540048 164.759 0.540039Z" fill="url(#paint4_linear_558_11488)" stroke="white" stroke-width="1.08006"/>
<rect x="154.857" y="9.33008" width="1.8001" height="10.8006" rx="0.90005" transform="rotate(-10.5546 154.857 9.33008)" fill="white"/>
<path d="M172.716 13.502C173.265 13.502 173.686 13.9891 173.606 14.5322L172.156 24.4326C172.091 24.8746 171.712 25.2021 171.266 25.2021H158.249C157.802 25.2021 157.423 24.8746 157.358 24.4326L155.908 14.5322C155.829 13.9891 156.25 13.502 156.799 13.502H172.716ZM164.757 15.3008C164.26 15.3008 163.856 15.7041 163.856 16.2012V22.501C163.856 22.998 164.26 23.4013 164.757 23.4014C165.254 23.4014 165.657 22.9981 165.657 22.501V16.2012C165.657 15.7041 165.254 15.3008 164.757 15.3008ZM169.456 15.3369C168.983 15.3192 168.547 15.6853 168.482 16.1543L167.614 22.4766C167.55 22.9456 167.881 23.3407 168.354 23.3584C168.827 23.3761 169.263 23.01 169.328 22.541L170.196 16.2188C170.261 15.7497 169.929 15.3547 169.456 15.3369ZM160.214 15.333C159.741 15.3508 159.409 15.7458 159.474 16.2148L160.342 22.5361C160.406 23.0053 160.842 23.3713 161.315 23.3535C161.788 23.3357 162.12 22.9408 162.056 22.4717L161.187 16.1504C161.123 15.6813 160.687 15.3153 160.214 15.333Z" fill="white"/>
<circle cx="160.257" cy="26.1019" r="1.8001" fill="white"/>
<circle cx="169.257" cy="26.1019" r="1.8001" fill="white"/>
</g>
<g clip-path="url(#clip4_558_11488)">
<path d="M214.259 115.55C223.912 115.55 231.72 123.225 231.72 132.671C231.72 142.032 224.212 150.066 214.258 156.746C203.812 149.746 196.798 142.038 196.798 132.671C196.798 123.225 204.606 115.55 214.259 115.55Z" fill="url(#paint5_linear_558_11488)" stroke="white" stroke-width="1.08006"/>
<path d="M220.56 124.011C221.057 124.011 221.46 124.414 221.46 124.911V142.912C221.46 143.409 221.057 143.811 220.56 143.812H207.959C207.462 143.812 207.059 143.409 207.059 142.912V124.911C207.059 124.414 207.462 124.011 207.959 124.011H220.56ZM209.76 141.112H213.36V137.512H209.76V141.112ZM215.16 137.512V141.112H218.761V137.512H215.16ZM209.76 135.712H213.36V132.111H209.76V135.712ZM215.16 135.712H218.761V132.111H215.16V135.712ZM209.76 130.312H213.36V126.711H209.76V130.312ZM215.16 130.312H218.761V126.711H215.16V130.312Z" fill="white"/>
</g>
<defs>
<linearGradient id="paint0_linear_558_11488" x1="193.258" y1="173" x2="193.258" y2="220" gradientUnits="userSpaceOnUse">
<stop stop-color="#74CA84"/>
<stop offset="1" stop-color="#6BDF75"/>
</linearGradient>
<linearGradient id="paint1_linear_558_11488" x1="193.258" y1="173" x2="193.258" y2="220" gradientUnits="userSpaceOnUse">
<stop stop-color="#50A7FF"/>
<stop offset="1" stop-color="#8ABEF2"/>
</linearGradient>
<linearGradient id="paint2_linear_558_11488" x1="105.307" y1="83.4082" x2="105.307" y2="215.575" gradientUnits="userSpaceOnUse">
<stop stop-color="#FFB662"/>
<stop offset="1" stop-color="#FF891B"/>
</linearGradient>
<linearGradient id="paint3_linear_558_11488" x1="18.001" y1="58" x2="18.001" y2="100.302" gradientUnits="userSpaceOnUse">
<stop stop-color="#9ADFFF"/>
<stop offset="1" stop-color="#7CD5FF"/>
</linearGradient>
<linearGradient id="paint4_linear_558_11488" x1="164.759" y1="0" x2="164.759" y2="42.3023" gradientUnits="userSpaceOnUse">
<stop stop-color="#50A7FF"/>
<stop offset="1" stop-color="#8ABEF2"/>
</linearGradient>
<linearGradient id="paint5_linear_558_11488" x1="214.259" y1="115.01" x2="214.259" y2="157.312" gradientUnits="userSpaceOnUse">
<stop stop-color="#9ADFFF"/>
<stop offset="1" stop-color="#7CD5FF"/>
</linearGradient>
<clipPath id="clip0_558_11488">
<rect y="13.8652" width="247.514" height="247.514" rx="123.757" fill="white"/>
</clipPath>
<clipPath id="clip1_558_11488">
<rect width="41" height="48" fill="white" transform="translate(173.258 173)"/>
</clipPath>
<clipPath id="clip2_558_11488">
<rect width="36.902" height="43.2024" fill="white" transform="translate(0 58)"/>
</clipPath>
<clipPath id="clip3_558_11488">
<rect width="36.902" height="43.2024" fill="white" transform="translate(146.758)"/>
</clipPath>
<clipPath id="clip4_558_11488">
<rect width="36.902" height="43.2024" fill="white" transform="translate(196.258 115.01)"/>
</clipPath>
</defs>
</svg>
