<svg width="286" height="205" viewBox="0 0 286 205" fill="none" xmlns="http://www.w3.org/2000/svg">
<path d="M79.4004 196.835C79.4004 185.789 88.3547 176.835 99.4004 176.835H185.734C196.78 176.835 205.734 185.789 205.734 196.835V200.61C205.734 202.819 203.944 204.61 201.734 204.61H83.4004C81.1913 204.61 79.4004 202.819 79.4004 200.61V196.835Z" fill="url(#paint0_linear_558_11579)"/>
<rect x="83.7598" y="122.898" width="116.15" height="5.368" transform="rotate(10.7112 83.7598 122.898)" fill="#6BD0FF"/>
<path d="M193.258 144.632C193.258 142.423 195.049 140.632 197.258 140.632H281.139C283.348 140.632 285.139 142.423 285.139 144.632V146.636C285.139 157.681 276.184 166.636 265.139 166.636H213.258C202.212 166.636 193.258 157.681 193.258 146.636V144.632Z" fill="url(#paint1_linear_558_11579)"/>
<path d="M195.25 82.4937C195.25 79.8981 197.354 77.7939 199.95 77.7939H242.702C245.297 77.7939 247.401 79.8981 247.401 82.4937V131.82H197.6C196.302 131.82 195.25 130.768 195.25 129.471V82.4937Z" fill="url(#paint2_linear_558_11579)"/>
<path d="M247.4 85.9688H269.78C271.629 85.9688 273.306 87.0526 274.065 88.7382L282.731 107.974C283.004 108.581 283.145 109.239 283.145 109.905V129.471C283.145 130.769 282.093 131.821 280.795 131.821H247.4V85.9688Z" fill="url(#paint3_linear_558_11579)"/>
<path d="M253.057 92.1914H268.594L274.908 106.473H253.057V92.1914Z" fill="url(#paint4_linear_558_11579)"/>
<path d="M195.25 127.371H283.146V129.471C283.146 130.769 282.094 131.821 280.796 131.821H197.6C196.302 131.821 195.25 130.769 195.25 129.471V127.371Z" fill="url(#paint5_linear_558_11579)"/>
<circle cx="213.09" cy="131.9" r="6.38248" fill="#929292" stroke="#575960" stroke-width="4.69974"/>
<circle cx="265.781" cy="131.9" r="6.38248" fill="#929292" stroke="#575960" stroke-width="4.69974"/>
<path d="M0 121.805C0 119.596 1.79086 117.805 4 117.805H87.8809C90.09 117.805 91.8809 119.596 91.8809 121.805V123.809C91.8809 134.854 82.9266 143.809 71.8809 143.809H20C8.9543 143.809 0 134.854 0 123.809V121.805Z" fill="url(#paint6_linear_558_11579)"/>
<rect x="10.5195" y="61.1328" width="70.8402" height="56.6721" rx="3.71163" fill="url(#paint7_linear_558_11579)"/>
<path d="M50.1387 91.3328C50.1387 89.9662 51.2465 88.8584 52.6131 88.8584H66.5426C67.9092 88.8584 69.017 89.9662 69.017 91.3328V117.805H50.1387V91.3328Z" fill="url(#paint8_linear_558_11579)"/>
<path d="M2.01953 57.7605C2.01953 55.7106 3.68128 54.0488 5.73116 54.0488H86.1497C88.1996 54.0488 89.8614 55.7106 89.8614 57.7605V72.4673H2.01953V57.7605Z" fill="url(#paint9_linear_558_11579)"/>
<path d="M2.01953 72.4668H89.8614V73.0056C89.8614 75.0555 88.1996 76.7172 86.1497 76.7172H5.73116C3.68128 76.7172 2.01953 75.0555 2.01953 73.0056V72.4668Z" fill="url(#paint10_linear_558_11579)"/>
<path d="M126.316 136.114C126.316 127.138 133.593 119.861 142.569 119.861C151.545 119.861 158.821 127.138 158.821 136.114V176.835H126.316V136.114Z" fill="url(#paint11_linear_558_11579)"/>
<circle cx="142.567" cy="136.33" r="8.56152" fill="#D0F4FF"/>
<path d="M171.861 15.1657C177.266 9.1154 185.599 9.61859 190.843 15.1658C198.188 22.9346 192.646 37.6929 177.266 36.3639L173.849 43.1995" stroke="#94DDFF" stroke-width="9" stroke-linecap="round" stroke-linejoin="round"/>
<circle cx="168.369" cy="55.7552" r="5.15915" transform="rotate(21.9619 168.369 55.7552)" fill="#94DDFF"/>
<defs>
<linearGradient id="paint0_linear_558_11579" x1="142.567" y1="176.835" x2="142.567" y2="204.61" gradientUnits="userSpaceOnUse">
<stop stop-color="#73767E"/>
<stop offset="1" stop-color="#575960"/>
</linearGradient>
<linearGradient id="paint1_linear_558_11579" x1="239.198" y1="140.632" x2="239.198" y2="166.636" gradientUnits="userSpaceOnUse">
<stop stop-color="#9ADFFF"/>
<stop offset="1" stop-color="#7CD5FF"/>
</linearGradient>
<linearGradient id="paint2_linear_558_11579" x1="221.326" y1="77.7939" x2="221.326" y2="131.82" gradientUnits="userSpaceOnUse">
<stop stop-color="#FFC58E"/>
<stop offset="1" stop-color="#FFB570"/>
</linearGradient>
<linearGradient id="paint3_linear_558_11579" x1="265.273" y1="85.9688" x2="265.273" y2="131.821" gradientUnits="userSpaceOnUse">
<stop stop-color="#FFAD61"/>
<stop offset="1" stop-color="#FF9531"/>
</linearGradient>
<linearGradient id="paint4_linear_558_11579" x1="253.057" y1="93.5728" x2="276.772" y2="108.771" gradientUnits="userSpaceOnUse">
<stop stop-color="#FFE09F"/>
<stop offset="1" stop-color="#FFD374"/>
</linearGradient>
<linearGradient id="paint5_linear_558_11579" x1="195.25" y1="129.596" x2="283.146" y2="129.596" gradientUnits="userSpaceOnUse">
<stop stop-color="#FF9736"/>
<stop offset="1" stop-color="#FF7B00"/>
</linearGradient>
<linearGradient id="paint6_linear_558_11579" x1="45.9404" y1="117.805" x2="45.9404" y2="143.809" gradientUnits="userSpaceOnUse">
<stop stop-color="#9ADFFF"/>
<stop offset="1" stop-color="#7CD5FF"/>
</linearGradient>
<linearGradient id="paint7_linear_558_11579" x1="45.9396" y1="61.1328" x2="45.9396" y2="117.805" gradientUnits="userSpaceOnUse">
<stop stop-color="#FFAD61"/>
<stop offset="1" stop-color="#FF9531"/>
</linearGradient>
<linearGradient id="paint8_linear_558_11579" x1="59.5779" y1="88.8584" x2="59.5779" y2="117.805" gradientUnits="userSpaceOnUse">
<stop stop-color="#FFE09F"/>
<stop offset="1" stop-color="#FFD374"/>
</linearGradient>
<linearGradient id="paint9_linear_558_11579" x1="31.6988" y1="51.2633" x2="55.7762" y2="76.5915" gradientUnits="userSpaceOnUse">
<stop stop-color="#FFC58E"/>
<stop offset="1" stop-color="#FFB570"/>
</linearGradient>
<linearGradient id="paint10_linear_558_11579" x1="2.01953" y1="74.592" x2="89.8614" y2="74.592" gradientUnits="userSpaceOnUse">
<stop stop-color="#FF9736"/>
<stop offset="1" stop-color="#FF7B00"/>
</linearGradient>
<linearGradient id="paint11_linear_558_11579" x1="142.569" y1="119.861" x2="142.569" y2="176.835" gradientUnits="userSpaceOnUse">
<stop stop-color="#9ADFFF"/>
<stop offset="1" stop-color="#7CD5FF"/>
</linearGradient>
</defs>
</svg>
