<svg width="52" height="52" viewBox="0 0 52 52" fill="none" xmlns="http://www.w3.org/2000/svg">
<g clip-path="url(#clip0_1248_14821)">
<rect y="10.1309" width="33" height="19" rx="4" transform="rotate(-7.19219 0 10.1309)" fill="url(#paint0_linear_1248_14821)"/>
<rect y="10.1309" width="33" height="19" rx="4" transform="rotate(-7.19219 0 10.1309)" fill="url(#paint1_linear_1248_14821)"/>
<path d="M7.73567 14.4181L10.6239 14.0536C11.1994 13.981 11.7051 14.0273 12.141 14.1924C12.5804 14.3571 12.9294 14.6199 13.1879 14.9807C13.4459 15.3379 13.6065 15.7669 13.6697 16.2679C13.7325 16.7652 13.6815 17.2192 13.5167 17.6298C13.3516 18.0368 13.0768 18.3764 12.6925 18.6487C12.3113 18.9169 11.8294 19.0878 11.2468 19.1614L9.32841 19.4034L9.18383 18.2577L10.9157 18.0392C11.2567 17.9962 11.5318 17.9019 11.7408 17.7564C11.9529 17.6069 12.099 17.4207 12.1792 17.1976C12.2629 16.9741 12.2872 16.7238 12.2522 16.4467C12.2164 16.1625 12.1304 15.9243 11.9942 15.7322C11.8612 15.536 11.6739 15.3955 11.4321 15.3105C11.19 15.2219 10.8984 15.1992 10.5573 15.2422L9.26776 15.405L10.0949 21.9594L8.70938 22.1343L7.73567 14.4181ZM15.8822 21.2291L15.7302 20.0248L17.6166 19.7868C18.1602 19.7182 18.597 19.562 18.9272 19.3182C19.2609 19.074 19.4937 18.7451 19.6255 18.3314C19.7569 17.9142 19.7854 17.4108 19.711 16.821C19.6366 16.2313 19.4859 15.7523 19.259 15.3839C19.0316 15.012 18.728 14.7507 18.348 14.6002C17.9717 14.4492 17.5188 14.4071 16.9895 14.4739L15.0178 14.7227L14.8659 13.5183L16.9121 13.2601C17.6759 13.1637 18.3544 13.2351 18.9476 13.4743C19.5404 13.7098 20.0207 14.0986 20.3887 14.6404C20.7566 15.1823 20.9908 15.8511 21.0912 16.6469C21.1921 17.4462 21.1298 18.1542 20.9045 18.7709C20.6827 19.3872 20.3107 19.8853 19.7883 20.2652C19.266 20.6451 18.6159 20.8841 17.8379 20.9823L15.8822 21.2291ZM16.6123 21.137L15.2268 21.3118L14.253 13.5957L15.6385 13.4208L16.6123 21.137ZM21.6337 12.6643L26.5735 12.0409L26.7208 13.208L23.1665 13.6565L23.4327 15.7667L26.646 15.3612L26.792 16.5176L23.5787 16.9231L23.9929 20.2056L22.6074 20.3805L21.6337 12.6643Z" fill="white"/>
<path d="M22.9075 31.7381C23.961 23.8692 31.1939 18.3442 39.0628 19.3977C46.9317 20.4511 52.4567 27.6841 51.4033 35.553C50.3499 43.4219 43.1169 48.9469 35.248 47.8934C27.3791 46.84 21.8541 39.607 22.9075 31.7381Z" fill="white"/>
<path d="M22.9075 31.7381C23.961 23.8692 31.1939 18.3442 39.0628 19.3977C46.9317 20.4511 52.4567 27.6841 51.4033 35.553C50.3499 43.4219 43.1169 48.9469 35.248 47.8934C27.3791 46.84 21.8541 39.607 22.9075 31.7381Z" fill="url(#paint2_linear_1248_14821)"/>
<path d="M30.6496 35.9004L30.3132 38.4132L42.5018 40.045L42.8382 37.5321" stroke="white" stroke-width="1.5" stroke-linecap="round" stroke-linejoin="round"/>
<path d="M30.6496 35.9004L30.3132 38.4132L42.5018 40.045L42.8382 37.5321" stroke="#FFF2D7" stroke-width="1.5" stroke-linecap="round" stroke-linejoin="round"/>
<path d="M36.1168 36.5295C36.3682 36.8587 36.8389 36.9217 37.168 36.6702L42.5321 32.5728C42.8613 32.3214 42.9243 31.8507 42.6729 31.5215C42.4214 31.1923 41.9508 31.1293 41.6216 31.3808L36.8535 35.0229L33.2113 30.2549C32.9599 29.9257 32.4892 29.8627 32.1601 30.1141C31.8309 30.3656 31.7679 30.8362 32.0193 31.1654L36.1168 36.5295ZM38.665 27.1439C38.72 26.7333 38.4317 26.3559 38.0212 26.301C37.6106 26.246 37.2332 26.5343 37.1783 26.9448L37.9216 27.0443L38.665 27.1439ZM36.7128 36.0742L37.4561 36.1737L38.665 27.1439L37.9216 27.0443L37.1783 26.9448L35.9694 35.9747L36.7128 36.0742Z" fill="white"/>
<path d="M36.1168 36.5295C36.3682 36.8587 36.8389 36.9217 37.168 36.6702L42.5321 32.5728C42.8613 32.3214 42.9243 31.8507 42.6729 31.5215C42.4214 31.1923 41.9508 31.1293 41.6216 31.3808L36.8535 35.0229L33.2113 30.2549C32.9599 29.9257 32.4892 29.8627 32.1601 30.1141C31.8309 30.3656 31.7679 30.8362 32.0193 31.1654L36.1168 36.5295ZM38.665 27.1439C38.72 26.7333 38.4317 26.3559 38.0212 26.301C37.6106 26.246 37.2332 26.5343 37.1783 26.9448L37.9216 27.0443L38.665 27.1439ZM36.7128 36.0742L37.4561 36.1737L38.665 27.1439L37.9216 27.0443L37.1783 26.9448L35.9694 35.9747L36.7128 36.0742Z" fill="#FFF2D7"/>
</g>
<defs>
<linearGradient id="paint0_linear_1248_14821" x1="16.5" y1="10.1309" x2="16.5" y2="29.1309" gradientUnits="userSpaceOnUse">
<stop stop-color="#9ADFFF"/>
<stop offset="1" stop-color="#7CD5FF"/>
</linearGradient>
<linearGradient id="paint1_linear_1248_14821" x1="16.5" y1="10.1309" x2="16.5" y2="29.1309" gradientUnits="userSpaceOnUse">
<stop stop-color="#8ABEF2"/>
<stop offset="1" stop-color="#50A7FF"/>
</linearGradient>
<linearGradient id="paint2_linear_1248_14821" x1="39.0628" y1="19.3977" x2="35.248" y2="47.8934" gradientUnits="userSpaceOnUse">
<stop stop-color="#FFAD61"/>
<stop offset="1" stop-color="#FF9531"/>
</linearGradient>
<clipPath id="clip0_1248_14821">
<rect width="52" height="52" fill="white"/>
</clipPath>
</defs>
</svg>
