<svg width="52" height="52" viewBox="0 0 52 52" fill="none" xmlns="http://www.w3.org/2000/svg">
<g clip-path="url(#clip0_1248_14777)">
<path d="M10.7876 5.35579C10.7876 4.3341 11.6158 3.50586 12.6375 3.50586H30.1442L42.2284 15.6326V44.9806C42.2284 46.0023 41.4001 46.8306 40.3784 46.8306H12.6375C11.6158 46.8306 10.7876 46.0023 10.7876 44.9806V5.35579Z" fill="#DDDDDD"/>
<path d="M10.7876 5.35579C10.7876 4.3341 11.6158 3.50586 12.6375 3.50586H30.1442L42.2284 15.6326V44.9806C42.2284 46.0023 41.4001 46.8306 40.3784 46.8306H12.6375C11.6158 46.8306 10.7876 46.0023 10.7876 44.9806V5.35579Z" fill="url(#paint0_linear_1248_14777)"/>
<line x1="16.7308" y1="10.8536" x2="34.5644" y2="10.8536" stroke="#FFEFDF" stroke-width="2.31242" stroke-linecap="round"/>
<line x1="16.7308" y1="18.2539" x2="36.2852" y2="18.2539" stroke="#FFEFDF" stroke-width="2.31242" stroke-linecap="round"/>
<line x1="23.8901" y1="25.6543" x2="36.2853" y2="25.6543" stroke="#FFEFDF" stroke-width="2.31242" stroke-linecap="round"/>
<line x1="29.3539" y1="33.0528" x2="36.2853" y2="33.0528" stroke="#FFEFDF" stroke-width="2.31242" stroke-linecap="round"/>
<path d="M32.0117 15.5887H42.2446L30.1618 3.50586V13.7388C30.1618 14.7605 30.99 15.5887 32.0117 15.5887Z" fill="url(#paint1_linear_1248_14777)"/>
<path d="M22.8691 28.9173C27.5467 33.5488 27.5841 41.0954 22.9526 45.7731C18.789 49.9781 12.272 50.43 7.59883 47.1142L3.59077 51.1234C2.80978 51.9044 1.54337 51.9045 0.762311 51.1236C-0.0187373 50.3425 -0.0189469 49.0762 0.762101 48.2951L4.7681 44.2881C1.46742 39.6533 1.8733 33.1822 6.01333 29.0009C10.6448 24.3232 18.1914 24.2858 22.8691 28.9173ZM20.0547 31.7597C16.9469 28.6826 11.9329 28.7074 8.85574 31.8153C5.77857 34.9231 5.80342 39.937 8.91126 43.0142C12.0191 46.0914 17.033 46.0665 20.1102 42.9587C23.1874 39.8509 23.1625 34.8369 20.0547 31.7597Z" fill="#8BDAFF"/>
</g>
<defs>
<linearGradient id="paint0_linear_1248_14777" x1="26.508" y1="3.50586" x2="26.508" y2="46.7323" gradientUnits="userSpaceOnUse">
<stop stop-color="#FFAD61"/>
<stop offset="1" stop-color="#FF9531"/>
</linearGradient>
<linearGradient id="paint1_linear_1248_14777" x1="36.2032" y1="3.50586" x2="36.2032" y2="15.5887" gradientUnits="userSpaceOnUse">
<stop stop-color="#FFE09F"/>
<stop offset="1" stop-color="#FFD374"/>
</linearGradient>
<clipPath id="clip0_1248_14777">
<rect width="52" height="52" fill="white"/>
</clipPath>
</defs>
</svg>
