<svg preserveAspectRatio="none" width="100%" height="100%" overflow="visible" style="display: block;" viewBox="0 0 42 42" fill="none" xmlns="http://www.w3.org/2000/svg">
<g id="&#240;&#159;&#142;&#171; &#237;&#139;&#176;&#236;&#188;&#147;">
<path id="Vector" d="M36.4875 21.0002C36.4875 19.1154 38.0152 17.5877 39.9 17.5877V8.97346C39.9 8.02426 39.1303 7.25566 38.1822 7.25566H3.8178C2.8686 7.25566 2.1 8.02531 2.1 8.97346V17.5877C3.98475 17.5877 5.5125 19.1154 5.5125 21.0002C5.5125 22.8849 3.98475 24.4127 2.1 24.4127V33.0269C2.1 33.9761 2.86965 34.7447 3.8178 34.7447H38.1811C39.1303 34.7447 39.8989 33.975 39.8989 33.0269V24.4127C38.0142 24.4127 36.4875 22.8849 36.4875 21.0002Z" fill="var(--fill-0, #FF621B)"/>
<path id="Subtract" fill-rule="evenodd" clip-rule="evenodd" d="M21.2699 12.9131C21.3977 12.9131 21.4983 13.0235 21.4852 13.1506L20.9794 18.0588H23.4403C26.147 18.0589 28.3415 20.2535 28.3417 22.9602C28.3415 26.3436 25.5984 29.0868 22.215 29.0869H14.2596C14.1326 29.0862 14.0333 28.9759 14.046 28.8494L15.6661 13.1062C15.6775 12.9966 15.7696 12.9135 15.8798 12.9131H21.2699ZM20.465 22.6799L18.0502 23.5737L20.465 24.4675L21.3588 26.8823L22.2509 24.4675L24.6657 23.5737L22.2509 22.6799L21.3588 20.2651L20.465 22.6799Z" fill="url(#paint0_linear_1352_13820)"/>
</g>
<defs>
<linearGradient id="paint0_linear_1352_13820" x1="14.0449" y1="21" x2="28.3417" y2="21" gradientUnits="userSpaceOnUse">
<stop stop-color="#FFC78A"/>
<stop offset="1" stop-color="#FF9058"/>
</linearGradient>
</defs>
</svg>
