<svg width="234" height="114" viewBox="0 0 234 114" fill="none" xmlns="http://www.w3.org/2000/svg">
<g clip-path="url(#clip0_538_10542)">
<path d="M133.179 71.0894V70.9338L83.7773 75.5239V38.959H127.889V49.0727H99.7259V52.5736L127.111 50.9398V59.4976L99.7259 61.2869V63.4652L133.179 60.9757V38.959H149.205V69.4557L133.179 71.0894ZM89.8456 106.254V88.2827L133.179 84.3928V82.6812L89.8456 86.5711V77.002L149.205 71.4006V90.461L105.872 94.3509V96.1402L150.683 92.2504V106.254H89.8456Z" fill="#FF621B"/>
<path d="M127.889 38.9589H83.7772V75.5238L133.179 70.9334V71.0891L149.205 69.4557V38.9589H133.179V60.9754L99.7257 63.4651V61.2869L127.111 59.4977V50.94L99.7257 52.5735V49.0726H127.889V38.9589ZM150.683 106.254V92.2502L105.872 96.1401V94.3509L149.205 90.461V71.4006L89.8453 77.0022V86.5712L133.179 82.6813V84.393L89.8453 88.2829V106.254H150.683ZM153.873 87.2876L155.351 87.16V110.922H85.1774V80.0814L79.1094 80.6452V34.291H153.873V87.2876Z" fill="white"/>
<path d="M29.7637 61.6806L38.7104 60.5137V73.3503L29.7637 74.5172V61.6806Z" fill="white"/>
<path d="M29.7637 30.8047L38.7104 29.6377V42.4743L29.7637 43.6413V30.8047Z" fill="white"/>
<mask id="path-5-outside-1_538_10542" maskUnits="userSpaceOnUse" x="0.140625" y="-0.0986328" width="83" height="102" fill="black">
<rect fill="white" x="0.140625" y="-0.0986328" width="83" height="102"/>
<path d="M33.5898 27.335L29.8545 27.8389V46.583L39.4355 45.416V27.5996H55.3838V49.8506L62.3076 49.0723V27.2891H78.334V92.1719L62.3076 95.2842V64.9424L55.3838 65.7207V87.4268L13.9062 92.4834V29.9922L9.14062 30.6367L20.8672 8.90137L33.5898 27.335ZM29.8545 61.0527V75.4453L39.4355 74.2783V59.8857L29.8545 61.0527Z"/>
</mask>
<path d="M33.5898 27.335L29.8545 27.8389V46.583L39.4355 45.416V27.5996H55.3838V49.8506L62.3076 49.0723V27.2891H78.334V92.1719L62.3076 95.2842V64.9424L55.3838 65.7207V87.4268L13.9062 92.4834V29.9922L9.14062 30.6367L20.8672 8.90137L33.5898 27.335ZM29.8545 61.0527V75.4453L39.4355 74.2783V59.8857L29.8545 61.0527Z" fill="#FF621B"/>
<path d="M33.5898 27.335L34.2139 31.9609L41.7524 30.944L37.4315 24.6835L33.5898 27.335ZM29.8545 27.8389L29.2304 23.2129L25.1866 23.7584V27.8389H29.8545ZM29.8545 46.583H25.1866V51.8539L30.4189 51.2166L29.8545 46.583ZM39.4355 45.416L39.9999 50.0496L44.1034 49.5498V45.416H39.4355ZM39.4355 27.5996V22.9318H34.7677V27.5996H39.4355ZM55.3838 27.5996H60.0516V22.9318H55.3838V27.5996ZM55.3838 49.8506H50.7159V55.0726L55.9052 54.4892L55.3838 49.8506ZM62.3076 49.0723L62.8291 53.7109L66.9755 53.2448V49.0723H62.3076ZM62.3076 27.2891V22.6212H57.6398V27.2891H62.3076ZM78.334 27.2891H83.0018V22.6212H78.334V27.2891ZM78.334 92.1719L79.2239 96.7541L83.0018 96.0204V92.1719H78.334ZM62.3076 95.2842H57.6398V100.946L63.1975 99.8664L62.3076 95.2842ZM62.3076 64.9424H66.9755V59.7204L61.7862 60.3037L62.3076 64.9424ZM55.3838 65.7207L54.8624 61.0821L50.7159 61.5482V65.7207H55.3838ZM55.3838 87.4268L55.9487 92.0603L60.0516 91.5601V87.4268H55.3838ZM13.9062 92.4834H9.23839V97.7549L14.4711 97.117L13.9062 92.4834ZM13.9062 29.9922H18.5741V24.6505L13.2806 25.3664L13.9062 29.9922ZM9.14062 30.6367L5.03252 28.4203L0.677937 36.4916L9.76624 35.2625L9.14062 30.6367ZM20.8672 8.90137L24.7089 6.24988L20.3787 -0.0240183L16.7591 6.68498L20.8672 8.90137ZM29.8545 61.0527L29.2901 56.4191L25.1866 56.9189V61.0527H29.8545ZM29.8545 75.4453H25.1866V80.7162L30.4189 80.0789L29.8545 75.4453ZM39.4355 74.2783L39.9999 78.9119L44.1034 78.4121V74.2783H39.4355ZM39.4355 59.8857H44.1034V54.6148L38.8712 55.2521L39.4355 59.8857ZM33.5898 27.335L32.9658 22.709L29.2304 23.2129L29.8545 27.8389L30.4785 32.4648L34.2139 31.9609L33.5898 27.335ZM29.8545 27.8389H25.1866V46.583H29.8545H34.5223V27.8389H29.8545ZM29.8545 46.583L30.4189 51.2166L39.9999 50.0496L39.4355 45.416L38.8712 40.7824L29.2901 41.9494L29.8545 46.583ZM39.4355 45.416H44.1034V27.5996H39.4355H34.7677V45.416H39.4355ZM39.4355 27.5996V32.2675H55.3838V27.5996V22.9318H39.4355V27.5996ZM55.3838 27.5996H50.7159V49.8506H55.3838H60.0516V27.5996H55.3838ZM55.3838 49.8506L55.9052 54.4892L62.8291 53.7109L62.3076 49.0723L61.7862 44.4336L54.8624 45.2119L55.3838 49.8506ZM62.3076 49.0723H66.9755V27.2891H62.3076H57.6398V49.0723H62.3076ZM62.3076 27.2891V31.9569H78.334V27.2891V22.6212H62.3076V27.2891ZM78.334 27.2891H73.6661V92.1719H78.334H83.0018V27.2891H78.334ZM78.334 92.1719L77.4441 87.5896L61.4177 90.7019L62.3076 95.2842L63.1975 99.8664L79.2239 96.7541L78.334 92.1719ZM62.3076 95.2842H66.9755V64.9424H62.3076H57.6398V95.2842H62.3076ZM62.3076 64.9424L61.7862 60.3037L54.8624 61.0821L55.3838 65.7207L55.9052 70.3593L62.8291 69.581L62.3076 64.9424ZM55.3838 65.7207H50.7159V87.4268H55.3838H60.0516V65.7207H55.3838ZM55.3838 87.4268L54.8189 82.7932L13.3414 87.8498L13.9062 92.4834L14.4711 97.117L55.9487 92.0603L55.3838 87.4268ZM13.9062 92.4834H18.5741V29.9922H13.9062H9.23839V92.4834H13.9062ZM13.9062 29.9922L13.2806 25.3664L8.51501 26.011L9.14062 30.6367L9.76624 35.2625L14.5319 34.6179L13.9062 29.9922ZM9.14062 30.6367L13.2487 32.8531L24.9753 11.1178L20.8672 8.90137L16.7591 6.68498L5.03252 28.4203L9.14062 30.6367ZM20.8672 8.90137L17.0255 11.5529L29.7482 29.9864L33.5898 27.335L37.4315 24.6835L24.7089 6.24988L20.8672 8.90137ZM29.8545 61.0527H25.1866V75.4453H29.8545H34.5223V61.0527H29.8545ZM29.8545 75.4453L30.4189 80.0789L39.9999 78.9119L39.4355 74.2783L38.8712 69.6447L29.2901 70.8117L29.8545 75.4453ZM39.4355 74.2783H44.1034V59.8857H39.4355H34.7677V74.2783H39.4355ZM39.4355 59.8857L38.8712 55.2521L29.2901 56.4191L29.8545 61.0527L30.4189 65.6863L39.9999 64.5194L39.4355 59.8857Z" fill="white" mask="url(#path-5-outside-1_538_10542)"/>
<path d="M221.249 43.8883L228.717 43.032V58.903L221.249 59.7585V83.5331L225.475 82.9626L213.748 104.699L201.026 86.2644L205.222 85.6976V21.4819H221.249V43.8883ZM201.877 59.9652L187.796 92.6402L174.648 86.9603L186.24 59.1872V42.6157H179.627V28.3014H201.877V59.9652ZM177.915 55.3748L165.001 85.3269L152.242 79.881L162.667 54.5968V39.5038H155.666V25.1895H177.915V55.3748Z" fill="#FF621B"/>
<path d="M225.914 16.8145V38.6548L233.383 37.7985V63.0668L225.914 63.9223V78.1925L233.934 77.1106L214.234 113.625L195.519 86.5071L190.231 98.7785L168.562 89.4177L175.919 71.7879L167.444 91.4462L150.372 84.1593L150.371 72.1682L157.997 53.6726V44.172H150.995V20.522H182.581V23.6339H200.552V16.8145H225.914ZM155.663 39.5042H162.665V54.5972L152.24 79.8814L164.999 85.3273L177.913 55.3752V25.1899H155.663V39.5042ZM197.445 82.0376L200.399 81.6387L200.552 81.6174V74.8291L197.445 82.0376ZM179.625 28.3018V42.6161H186.237V59.1876L174.645 86.9607L187.793 92.6405L201.874 59.9655V28.3018H179.625ZM205.22 21.4823V85.698L201.024 86.2648L213.745 104.699L225.473 82.9629L221.246 83.5335V59.7589L228.715 58.9034V43.0324L221.246 43.8886V21.4823H205.22Z" fill="white"/>
</g>
<defs>
<clipPath id="clip0_538_10542">
<rect width="234" height="114" fill="white"/>
</clipPath>
</defs>
</svg>
