<svg width="176" height="86" viewBox="0 0 176 86" fill="none" xmlns="http://www.w3.org/2000/svg">
<g clip-path="url(#clip0_538_10543)">
<path d="M100.149 53.458V53.341L63 56.7927V29.2964H96.1711V36.9017H74.9931V39.5344L95.586 38.3058V44.7411L74.9931 46.0867V47.7248L100.149 45.8527V29.2964H112.201V52.2295L100.149 53.458ZM67.5632 79.9013V66.3871L100.149 63.462V62.1749L67.5632 65.1001V57.9042L112.201 53.692V68.0252L79.6148 70.9503V72.2959L113.312 69.3708V79.9013H67.5632Z" fill="white"/>
<path d="M96.1696 29.2968H62.9984V56.7931L100.148 53.3412V53.4583L112.199 52.23V29.2968H100.148V45.8529L74.9915 47.7252V46.0872L95.5846 44.7417V38.3064L74.9915 39.5348V36.9021H96.1696V29.2968ZM113.311 79.9017V69.3712L79.6135 72.2963V70.9509L112.199 68.0257V53.6925L67.5615 57.9049V65.1006L100.148 62.1754V63.4626L67.5615 66.3878V79.9017H113.311ZM115.709 65.6393L116.821 65.5434V83.4118H64.0514V60.2204L59.4883 60.6443V25.7866H115.709V65.6393Z" fill="#FF621B"/>
<path d="M22.3828 46.3829L29.1106 45.5054V55.1583L22.3828 56.0359V46.3829Z" fill="#FF621B"/>
<path d="M22.3828 23.1647L29.1106 22.2871V31.9401L22.3828 32.8176V23.1647Z" fill="white"/>
<mask id="path-5-outside-1_538_10543" maskUnits="userSpaceOnUse" x="-0.126953" y="-0.306152" width="63" height="77" fill="black">
<rect fill="white" x="-0.126953" y="-0.306152" width="63" height="77"/>
<path d="M25.2588 20.5562L22.4502 20.9351V35.0298L29.6543 34.1519V20.7554H41.6475V37.4868L46.8545 36.9019V20.521H58.9053V69.312L46.8545 71.6528V48.8364L41.6475 49.4214V65.7437L10.457 69.5464V22.5542L6.87305 23.0386L15.6914 6.69385L25.2588 20.5562ZM22.4502 45.9116V56.7339L29.6543 55.8569V45.0337L22.4502 45.9116Z"/>
</mask>
<path d="M25.2588 20.5562L22.4502 20.9351V35.0298L29.6543 34.1519V20.7554H41.6475V37.4868L46.8545 36.9019V20.521H58.9053V69.312L46.8545 71.6528V48.8364L41.6475 49.4214V65.7437L10.457 69.5464V22.5542L6.87305 23.0386L15.6914 6.69385L25.2588 20.5562ZM22.4502 45.9116V56.7339L29.6543 55.8569V45.0337L22.4502 45.9116Z" fill="white"/>
<path d="M25.2588 20.5562L25.7281 24.0348L31.3968 23.27L28.1477 18.5623L25.2588 20.5562ZM22.4502 20.9351L21.9809 17.4564L18.94 17.8666V20.9351H22.4502ZM22.4502 35.0298H18.94V38.9937L22.8748 38.5142L22.4502 35.0298ZM29.6543 34.1519L30.0789 37.6362L33.1645 37.2602V34.1519H29.6543ZM29.6543 20.7554V17.2452H26.1441V20.7554H29.6543ZM41.6475 20.7554H45.1576V17.2452H41.6475V20.7554ZM41.6475 37.4868H38.1373V41.4134L42.0393 40.975L41.6475 37.4868ZM46.8545 36.9019L47.2464 40.3901L50.3647 40.0398V36.9019H46.8545ZM46.8545 20.521V17.0108H43.3443V20.521H46.8545ZM58.9053 20.521H62.4154V17.0108H58.9053V20.521ZM58.9053 69.312L59.5746 72.7578L62.4154 72.2059V69.312H58.9053ZM46.8545 71.6528H43.3443V75.9104L47.5238 75.0986L46.8545 71.6528ZM46.8545 48.8364H50.3647V44.9098L46.4626 45.3482L46.8545 48.8364ZM41.6475 49.4214L41.2556 45.9332L38.1373 46.2835V49.4214H41.6475ZM41.6475 65.7437L42.0723 69.228L45.1576 68.8518V65.7437H41.6475ZM10.457 69.5464H6.94687V73.5105L10.8818 73.0308L10.457 69.5464ZM10.457 22.5542H13.9672V18.5377L9.98691 19.0757L10.457 22.5542ZM6.87305 23.0386L3.78382 21.3719L0.509552 27.4407L7.34317 26.5171L6.87305 23.0386ZM15.6914 6.69385L18.5803 4.7L15.3241 -0.017952L12.6022 5.02714L15.6914 6.69385ZM22.4502 45.9116L22.0256 42.4272L18.94 42.8033V45.9116H22.4502ZM22.4502 56.7339H18.94V60.6973L22.8744 60.2183L22.4502 56.7339ZM29.6543 55.8569L30.0785 59.3414L33.1645 58.9657V55.8569H29.6543ZM29.6543 45.0337H33.1645V41.0698L29.2297 41.5493L29.6543 45.0337ZM25.2588 20.5562L24.7895 17.0775L21.9809 17.4564L22.4502 20.9351L22.9195 24.4137L25.7281 24.0348L25.2588 20.5562ZM22.4502 20.9351H18.94V35.0298H22.4502H25.9604V20.9351H22.4502ZM22.4502 35.0298L22.8748 38.5142L30.0789 37.6362L29.6543 34.1519L29.2297 30.6675L22.0256 31.5454L22.4502 35.0298ZM29.6543 34.1519H33.1645V20.7554H29.6543H26.1441V34.1519H29.6543ZM29.6543 20.7554V24.2655H41.6475V20.7554V17.2452H29.6543V20.7554ZM41.6475 20.7554H38.1373V37.4868H41.6475H45.1576V20.7554H41.6475ZM41.6475 37.4868L42.0393 40.975L47.2464 40.3901L46.8545 36.9019L46.4626 33.4136L41.2556 33.9986L41.6475 37.4868ZM46.8545 36.9019H50.3647V20.521H46.8545H43.3443V36.9019H46.8545ZM46.8545 20.521V24.0312H58.9053V20.521V17.0108H46.8545V20.521ZM58.9053 20.521H55.3951V69.312H58.9053H62.4154V20.521H58.9053ZM58.9053 69.312L58.2359 65.8663L46.1852 68.2071L46.8545 71.6528L47.5238 75.0986L59.5746 72.7578L58.9053 69.312ZM46.8545 71.6528H50.3647V48.8364H46.8545H43.3443V71.6528H46.8545ZM46.8545 48.8364L46.4626 45.3482L41.2556 45.9332L41.6475 49.4214L42.0393 52.9096L47.2464 52.3246L46.8545 48.8364ZM41.6475 49.4214H38.1373V65.7437H41.6475H45.1576V49.4214H41.6475ZM41.6475 65.7437L41.2226 62.2593L10.0322 66.062L10.457 69.5464L10.8818 73.0308L42.0723 69.228L41.6475 65.7437ZM10.457 69.5464H13.9672V22.5542H10.457H6.94687V69.5464H10.457ZM10.457 22.5542L9.98691 19.0757L6.40292 19.56L6.87305 23.0386L7.34317 26.5171L10.9272 26.0327L10.457 22.5542ZM6.87305 23.0386L9.96228 24.7053L18.7806 8.36056L15.6914 6.69385L12.6022 5.02714L3.78382 21.3719L6.87305 23.0386ZM15.6914 6.69385L12.8025 8.6877L22.3699 22.55L25.2588 20.5562L28.1477 18.5623L18.5803 4.7L15.6914 6.69385ZM22.4502 45.9116H18.94V56.7339H22.4502H25.9604V45.9116H22.4502ZM22.4502 56.7339L22.8744 60.2183L30.0785 59.3414L29.6543 55.8569L29.2301 52.3725L22.026 53.2494L22.4502 56.7339ZM29.6543 55.8569H33.1645V45.0337H29.6543H26.1441V55.8569H29.6543ZM29.6543 45.0337L29.2297 41.5493L22.0256 42.4272L22.4502 45.9116L22.8748 49.396L30.0789 48.5181L29.6543 45.0337Z" fill="#FF621B" mask="url(#path-5-outside-1_538_10543)"/>
<path d="M166.376 33.0035L171.992 32.3597V44.2945L166.376 44.9378V62.816L169.555 62.3869L160.736 78.7322L151.169 64.8698L154.325 64.4436V16.1543H166.376V33.0035ZM151.809 45.0932L141.22 69.6643L131.333 65.3932L140.05 44.5081V32.0466H135.077V21.2824H151.809V45.0932ZM133.79 41.6413L124.079 64.1648L114.484 60.0696L122.324 41.0562V29.7065H117.059V18.9423H133.79V41.6413Z" fill="white"/>
<path d="M169.884 12.644V29.0677L175.5 28.4238V47.4252L169.884 48.0685V58.7995L175.914 57.986L161.1 85.444L147.027 65.052L143.051 74.2799L126.756 67.2407L132.288 53.9833L125.915 68.7661L113.077 63.2865L113.076 54.2693L118.811 40.3609V33.2166H113.546V15.4321H137.297V17.7722H150.811V12.644H169.884ZM117.056 29.7064H122.321V41.0562L114.481 60.0695L124.076 64.1647L133.787 41.6412V18.9422H117.056V29.7064ZM148.475 61.6909L150.697 61.391L150.811 61.375V56.2703L148.475 61.6909ZM135.074 21.2823V32.0465H140.047V44.508L131.33 65.3931L141.217 69.6642L151.806 45.0931V21.2823H135.074ZM154.322 16.1542V64.4435L151.166 64.8697L160.733 78.7322L169.552 62.3868L166.373 62.8159V44.9377L171.989 44.2944V32.3596L166.373 33.0035V16.1542H154.322Z" fill="#FF621B"/>
</g>
<defs>
<clipPath id="clip0_538_10543">
<rect width="175.965" height="85.7265" fill="white"/>
</clipPath>
</defs>
</svg>
