<svg width="234" height="114" viewBox="0 0 234 114" fill="none" xmlns="http://www.w3.org/2000/svg">
<path d="M133.179 71.0894V70.9338L83.7773 75.5239V38.959H127.889V49.0727H99.7259V52.5736L127.111 50.9398V59.4976L99.7259 61.2869V63.4652L133.179 60.9757V38.959H149.205V69.4557L133.179 71.0894ZM89.8456 106.254V88.2827L133.179 84.3928V82.6812L89.8456 86.5711V77.002L149.205 71.4006V90.461L105.872 94.3509V96.1402L150.683 92.2504V106.254H89.8456Z" fill="#FF621B"/>
<path d="M33.5898 27.335L29.8545 27.8389V46.583L39.4355 45.416V27.5996H55.3838V49.8506L62.3076 49.0723V27.2891H78.334V92.1719L62.3076 95.2842V64.9424L55.3838 65.7207V87.4268L13.9062 92.4834V29.9922L9.14062 30.6367L20.8672 8.90137L33.5898 27.335ZM29.8545 61.0527V75.4453L39.4355 74.2783V59.8857L29.8545 61.0527Z" fill="#FF621B"/>
<path d="M221.249 43.8883L228.717 43.032V58.903L221.249 59.7585V83.5331L225.475 82.9626L213.748 104.699L201.026 86.2644L205.222 85.6976V21.4819H221.249V43.8883ZM201.877 59.9652L187.796 92.6402L174.648 86.9603L186.24 59.1872V42.6157H179.627V28.3014H201.877V59.9652ZM177.915 55.3748L165.001 85.3269L152.242 79.881L162.667 54.5968V39.5038H155.666V25.1895H177.915V55.3748Z" fill="#FF621B"/>
</svg>
