<svg width="254" height="235" viewBox="0 0 254 235" fill="none" xmlns="http://www.w3.org/2000/svg">
<path d="M207.84 183.051C208.992 187.585 204.742 191.634 200.269 190.265L98.6984 159.187C97.2355 158.74 96.7964 156.882 97.9039 155.827L178.378 79.1441C179.485 78.0887 181.319 78.617 181.696 80.0997L207.84 183.051Z" fill="url(#paint0_linear_558_11675)"/>
<ellipse cx="138.248" cy="117.598" rx="58.3353" ry="15.035" transform="rotate(-43.6182 138.248 117.598)" fill="url(#paint1_linear_558_11675)"/>
<path d="M163.903 142.366C182.264 124.869 186.206 111.756 187.895 104.485L192.449 122.357C191.235 127.74 187.934 138.794 173.079 153.168C161.196 164.666 145.32 171.132 140.119 171.865L123.321 166.728C130.599 165.257 148.219 157.31 163.903 142.366Z" fill="url(#paint2_linear_558_11675)"/>
<path d="M183.569 164.095C192.139 155.929 197.303 147.141 197.303 141.555L201.463 157.532C200.793 160.577 199.437 167.16 191.631 173.385C183.398 179.95 178.559 181.471 173.683 182.13L159.325 177.699C163.368 176.613 174.998 172.262 183.569 164.095Z" fill="url(#paint3_linear_558_11675)"/>
<path d="M61.4746 46.46L71.5699 44.0379L78.7529 66.7997L68.332 69.2999L61.4746 46.46Z" fill="#FFE68C"/>
<path d="M61.4746 46.46L71.5699 44.0379L78.7529 66.7997L68.332 69.2999L61.4746 46.46Z" fill="url(#paint4_linear_558_11675)"/>
<path d="M72.6807 165.887L59.8641 162.812L52.2422 185.468L65.4721 188.642L72.6807 165.887Z" fill="url(#paint5_linear_558_11675)"/>
<path d="M145.58 56.6748L139.162 49.9886L150.205 37.3157L156.83 44.2175L145.58 56.6748Z" fill="url(#paint6_linear_558_11675)"/>
<path d="M131.533 112.673L124.096 112.523L123.168 99.0638L130.845 99.2187L131.533 112.673Z" fill="#FFE68C"/>
<path d="M113.772 10.0029C120.871 6.5934 134.652 0.701855 151.772 10.0029" stroke="#FFBE81" stroke-width="10"/>
<path d="M28.68 60.65C23.2877 61.3908 12.9275 62.4062 2.5112 54.0023" stroke="#FFBD80" stroke-width="8"/>
<path d="M165.576 86.7123C168.056 71.2512 174.018 41.9958 207.66 22.9686" stroke="url(#paint7_linear_558_11675)" stroke-width="10"/>
<path d="M84.4407 134.003C68.4501 129.898 52.7607 113.438 79.7961 93.6017C117.659 65.8214 97.1081 135.279 33.7725 126.773" stroke="#FF9A3B" stroke-width="8"/>
<defs>
<linearGradient id="paint0_linear_558_11675" x1="128.659" y1="109.486" x2="204.975" y2="194.128" gradientUnits="userSpaceOnUse">
<stop stop-color="#FFAD61"/>
<stop offset="1" stop-color="#FF9531"/>
</linearGradient>
<linearGradient id="paint1_linear_558_11675" x1="138.248" y1="132.633" x2="138.248" y2="102.563" gradientUnits="userSpaceOnUse">
<stop stop-color="#FF8009"/>
<stop offset="1" stop-color="#FF9A3B"/>
</linearGradient>
<linearGradient id="paint2_linear_558_11675" x1="172.694" y1="153.538" x2="155.43" y2="135.42" gradientUnits="userSpaceOnUse">
<stop stop-color="#6BD0FF"/>
<stop offset="1" stop-color="#9ADFFF"/>
</linearGradient>
<linearGradient id="paint3_linear_558_11675" x1="191.611" y1="173.582" x2="178.303" y2="159.616" gradientUnits="userSpaceOnUse">
<stop stop-color="#6BD0FF"/>
<stop offset="1" stop-color="#9ADFFF"/>
</linearGradient>
<linearGradient id="paint4_linear_558_11675" x1="67.3364" y1="45.0536" x2="72.8912" y2="68.2061" gradientUnits="userSpaceOnUse">
<stop stop-color="#FF8800"/>
<stop offset="1" stop-color="#FFB159"/>
</linearGradient>
<linearGradient id="paint5_linear_558_11675" x1="65.2388" y1="164.101" x2="59.684" y2="187.254" gradientUnits="userSpaceOnUse">
<stop stop-color="#6BD0FF"/>
<stop offset="1" stop-color="#9ADFFF"/>
</linearGradient>
<linearGradient id="paint6_linear_558_11675" x1="152.683" y1="39.8978" x2="139.392" y2="48.0324" gradientUnits="userSpaceOnUse">
<stop stop-color="#6BD0FF"/>
<stop offset="1" stop-color="#9ADFFF"/>
</linearGradient>
<linearGradient id="paint7_linear_558_11675" x1="203.714" y1="20.3634" x2="161.63" y2="84.1071" gradientUnits="userSpaceOnUse">
<stop stop-color="#6BD0FF"/>
<stop offset="1" stop-color="#9ADFFF"/>
</linearGradient>
</defs>
</svg>
