<svg width="24" height="24" viewBox="0 0 24 24" fill="none" xmlns="http://www.w3.org/2000/svg">
<path d="M20.8499 12.0005C20.8499 10.9235 21.7229 10.0505 22.7999 10.0505V5.12808C22.7999 4.58568 22.3601 4.14648 21.8183 4.14648H2.18152C1.63912 4.14648 1.19992 4.58628 1.19992 5.12808V10.0505C2.27692 10.0505 3.14992 10.9235 3.14992 12.0005C3.14992 13.0775 2.27692 13.9505 1.19992 13.9505V18.8729C1.19992 19.4153 1.63972 19.8545 2.18152 19.8545H21.8177C22.3601 19.8545 22.7993 19.4147 22.7993 18.8729V13.9505C21.7223 13.9505 20.8499 13.0775 20.8499 12.0005Z" fill="#FF621B"/>
<path fill-rule="evenodd" clip-rule="evenodd" d="M12.1541 7.37891C12.2271 7.37891 12.2846 7.44199 12.2771 7.51465L11.9881 10.3193H13.3943C14.941 10.3194 16.195 11.5734 16.1951 13.1201C16.195 15.0535 14.6275 16.621 12.6941 16.6211H8.14824C8.07565 16.6207 8.0189 16.5576 8.02617 16.4854L8.95195 7.48926C8.95845 7.42661 9.01108 7.37913 9.07402 7.37891H12.1541ZM11.6941 12.96L10.3143 13.4707L11.6941 13.9814L12.2049 15.3613L12.7146 13.9814L14.0945 13.4707L12.7146 12.96L12.2049 11.5801L11.6941 12.96Z" fill="url(#paint0_linear_1248_14763)"/>
<defs>
<linearGradient id="paint0_linear_1248_14763" x1="8.02554" y1="12" x2="16.1951" y2="12" gradientUnits="userSpaceOnUse">
<stop stop-color="#FFC78A"/>
<stop offset="1" stop-color="#FF9058"/>
</linearGradient>
</defs>
</svg>
